<?xml version="1.0" encoding="utf-8" standalone="no"?>

<svg width="800" height="600" version="1.1" xmlns="http://www.w3.org/2000/svg">

    <!-- image title -->
    <title>Tree graphic created with pytreesvg</title>

    <defs>
        <!-- linear gradient definitions -->
        <linearGradient id="grad_midnightblue_darkslateblue" x1="0%" x2="0%" y1="0%" y2="100%">
           <stop offset="0%" stop-color="midnightblue"/>
           <stop offset="100%" stop-color="darkslateblue"/>
        </linearGradient>
        <linearGradient id="grad_darkslateblue_steelblue" x1="0%" x2="0%" y1="0%" y2="100%">
           <stop offset="0%" stop-color="darkslateblue"/>
           <stop offset="100%" stop-color="steelblue"/>
        </linearGradient>
        <linearGradient id="grad_steelblue_dodgerblue" x1="0%" x2="0%" y1="0%" y2="100%">
           <stop offset="0%" stop-color="steelblue"/>
           <stop offset="100%" stop-color="dodgerblue"/>
        </linearGradient>
        <linearGradient id="grad_dodgerblue_lightblue" x1="0%" x2="0%" y1="0%" y2="100%">
           <stop offset="0%" stop-color="dodgerblue"/>
           <stop offset="100%" stop-color="lightblue"/>
        </linearGradient>
    </defs>

    <!-- Node 'level_1' -->
    <line x1="400.0" y1="60.0" x2="100.0" y2="180.0" stroke="url(#grad_midnightblue_darkslateblue)" stroke-width="2"/> <!-- edge to node 'level_2' -->
    <line x1="400.0" y1="60.0" x2="300.0" y2="180.0" stroke="url(#grad_midnightblue_darkslateblue)" stroke-width="2"/> <!-- edge to node 'level_2' -->
    <line x1="400.0" y1="60.0" x2="500.0" y2="180.0" stroke="url(#grad_midnightblue_darkslateblue)" stroke-width="2"/> <!-- edge to node 'level_2' -->
    <line x1="400.0" y1="60.0" x2="700.0" y2="180.0" stroke="url(#grad_midnightblue_darkslateblue)" stroke-width="2"/> <!-- edge to node 'level_2' -->
    <circle cx="400.0" cy="60.0" r="22" fill="midnightblue"/>

        <!-- Node 'level_2' -->
        <line x1="100.0" y1="180.0" x2="25.0" y2="300.0" stroke="url(#grad_darkslateblue_steelblue)" stroke-width="2"/> <!-- edge to node 'level_3' -->
        <line x1="100.0" y1="180.0" x2="75.0" y2="300.0" stroke="url(#grad_darkslateblue_steelblue)" stroke-width="2"/> <!-- edge to node 'level_3' -->
        <line x1="100.0" y1="180.0" x2="125.0" y2="300.0" stroke="url(#grad_darkslateblue_steelblue)" stroke-width="2"/> <!-- edge to node 'level_3' -->
        <line x1="100.0" y1="180.0" x2="175.0" y2="300.0" stroke="url(#grad_darkslateblue_steelblue)" stroke-width="2"/> <!-- edge to node 'level_3' -->
        <circle cx="100.0" cy="180.0" r="16" fill="darkslateblue"/>

            <!-- Node 'level_3' -->
            <line x1="25.0" y1="300.0" x2="12.5" y2="420.0" stroke="url(#grad_steelblue_dodgerblue)" stroke-width="2"/> <!-- edge to node 'level_4' -->
            <line x1="25.0" y1="300.0" x2="37.5" y2="420.0" stroke="url(#grad_steelblue_dodgerblue)" stroke-width="2"/> <!-- edge to node 'level_4' -->
            <circle cx="25.0" cy="300.0" r="12" fill="steelblue"/>

                <!-- Node 'level_4' -->
                <line x1="12.5" y1="420.0" x2="6.25" y2="540.0" stroke="url(#grad_dodgerblue_lightblue)" stroke-width="2"/> <!-- edge to node 'level_5' -->
                <line x1="12.5" y1="420.0" x2="18.75" y2="540.0" stroke="url(#grad_dodgerblue_lightblue)" stroke-width="2"/> <!-- edge to node 'level_5' -->
                <circle cx="12.5" cy="420.0" r="8" fill="dodgerblue"/>

                    <!-- Node 'level_5' -->
                    <circle cx="6.25" cy="540.0" r="4" fill="lightblue"/>

                    <!-- Node 'level_5' -->
                    <circle cx="18.75" cy="540.0" r="4" fill="lightblue"/>

                <!-- Node 'level_4' -->
                <line x1="37.5" y1="420.0" x2="31.25" y2="540.0" stroke="url(#grad_dodgerblue_lightblue)" stroke-width="2"/> <!-- edge to node 'level_5' -->
                <line x1="37.5" y1="420.0" x2="43.75" y2="540.0" stroke="url(#grad_dodgerblue_lightblue)" stroke-width="2"/> <!-- edge to node 'level_5' -->
                <circle cx="37.5" cy="420.0" r="8" fill="dodgerblue"/>

                    <!-- Node 'level_5' -->
                    <circle cx="31.25" cy="540.0" r="4" fill="lightblue"/>

                    <!-- Node 'level_5' -->
                    <circle cx="43.75" cy="540.0" r="4" fill="lightblue"/>

            <!-- Node 'level_3' -->
            <line x1="75.0" y1="300.0" x2="62.5" y2="420.0" stroke="url(#grad_steelblue_dodgerblue)" stroke-width="2"/> <!-- edge to node 'level_4' -->
            <line x1="75.0" y1="300.0" x2="87.5" y2="420.0" stroke="url(#grad_steelblue_dodgerblue)" stroke-width="2"/> <!-- edge to node 'level_4' -->
            <circle cx="75.0" cy="300.0" r="12" fill="steelblue"/>

                <!-- Node 'level_4' -->
                <line x1="62.5" y1="420.0" x2="56.25" y2="540.0" stroke="url(#grad_dodgerblue_lightblue)" stroke-width="2"/> <!-- edge to node 'level_5' -->
                <line x1="62.5" y1="420.0" x2="68.75" y2="540.0" stroke="url(#grad_dodgerblue_lightblue)" stroke-width="2"/> <!-- edge to node 'level_5' -->
                <circle cx="62.5" cy="420.0" r="8" fill="dodgerblue"/>

                    <!-- Node 'level_5' -->
                    <circle cx="56.25" cy="540.0" r="4" fill="lightblue"/>

                    <!-- Node 'level_5' -->
                    <circle cx="68.75" cy="540.0" r="4" fill="lightblue"/>

                <!-- Node 'level_4' -->
                <line x1="87.5" y1="420.0" x2="81.25" y2="540.0" stroke="url(#grad_dodgerblue_lightblue)" stroke-width="2"/> <!-- edge to node 'level_5' -->
                <line x1="87.5" y1="420.0" x2="93.75" y2="540.0" stroke="url(#grad_dodgerblue_lightblue)" stroke-width="2"/> <!-- edge to node 'level_5' -->
                <circle cx="87.5" cy="420.0" r="8" fill="dodgerblue"/>

                    <!-- Node 'level_5' -->
                    <circle cx="81.25" cy="540.0" r="4" fill="lightblue"/>

                    <!-- Node 'level_5' -->
                    <circle cx="93.75" cy="540.0" r="4" fill="lightblue"/>

            <!-- Node 'level_3' -->
            <line x1="125.0" y1="300.0" x2="112.5" y2="420.0" stroke="url(#grad_steelblue_dodgerblue)" stroke-width="2"/> <!-- edge to node 'level_4' -->
            <line x1="125.0" y1="300.0" x2="137.5" y2="420.0" stroke="url(#grad_steelblue_dodgerblue)" stroke-width="2"/> <!-- edge to node 'level_4' -->
            <circle cx="125.0" cy="300.0" r="12" fill="steelblue"/>

                <!-- Node 'level_4' -->
                <line x1="112.5" y1="420.0" x2="106.25" y2="540.0" stroke="url(#grad_dodgerblue_lightblue)" stroke-width="2"/> <!-- edge to node 'level_5' -->
                <line x1="112.5" y1="420.0" x2="118.75" y2="540.0" stroke="url(#grad_dodgerblue_lightblue)" stroke-width="2"/> <!-- edge to node 'level_5' -->
                <circle cx="112.5" cy="420.0" r="8" fill="dodgerblue"/>

                    <!-- Node 'level_5' -->
                    <circle cx="106.25" cy="540.0" r="4" fill="lightblue"/>

                    <!-- Node 'level_5' -->
                    <circle cx="118.75" cy="540.0" r="4" fill="lightblue"/>

                <!-- Node 'level_4' -->
                <line x1="137.5" y1="420.0" x2="131.25" y2="540.0" stroke="url(#grad_dodgerblue_lightblue)" stroke-width="2"/> <!-- edge to node 'level_5' -->
                <line x1="137.5" y1="420.0" x2="143.75" y2="540.0" stroke="url(#grad_dodgerblue_lightblue)" stroke-width="2"/> <!-- edge to node 'level_5' -->
                <circle cx="137.5" cy="420.0" r="8" fill="dodgerblue"/>

                    <!-- Node 'level_5' -->
                    <circle cx="131.25" cy="540.0" r="4" fill="lightblue"/>

                    <!-- Node 'level_5' -->
                    <circle cx="143.75" cy="540.0" r="4" fill="lightblue"/>

            <!-- Node 'level_3' -->
            <line x1="175.0" y1="300.0" x2="162.5" y2="420.0" stroke="url(#grad_steelblue_dodgerblue)" stroke-width="2"/> <!-- edge to node 'level_4' -->
            <line x1="175.0" y1="300.0" x2="187.5" y2="420.0" stroke="url(#grad_steelblue_dodgerblue)" stroke-width="2"/> <!-- edge to node 'level_4' -->
            <circle cx="175.0" cy="300.0" r="12" fill="steelblue"/>

                <!-- Node 'level_4' -->
                <line x1="162.5" y1="420.0" x2="156.25" y2="540.0" stroke="url(#grad_dodgerblue_lightblue)" stroke-width="2"/> <!-- edge to node 'level_5' -->
                <line x1="162.5" y1="420.0" x2="168.75" y2="540.0" stroke="url(#grad_dodgerblue_lightblue)" stroke-width="2"/> <!-- edge to node 'level_5' -->
                <circle cx="162.5" cy="420.0" r="8" fill="dodgerblue"/>

                    <!-- Node 'level_5' -->
                    <circle cx="156.25" cy="540.0" r="4" fill="lightblue"/>

                    <!-- Node 'level_5' -->
                    <circle cx="168.75" cy="540.0" r="4" fill="lightblue"/>

                <!-- Node 'level_4' -->
                <line x1="187.5" y1="420.0" x2="181.25" y2="540.0" stroke="url(#grad_dodgerblue_lightblue)" stroke-width="2"/> <!-- edge to node 'level_5' -->
                <line x1="187.5" y1="420.0" x2="193.75" y2="540.0" stroke="url(#grad_dodgerblue_lightblue)" stroke-width="2"/> <!-- edge to node 'level_5' -->
                <circle cx="187.5" cy="420.0" r="8" fill="dodgerblue"/>

                    <!-- Node 'level_5' -->
                    <circle cx="181.25" cy="540.0" r="4" fill="lightblue"/>

                    <!-- Node 'level_5' -->
                    <circle cx="193.75" cy="540.0" r="4" fill="lightblue"/>

        <!-- Node 'level_2' -->
        <line x1="300.0" y1="180.0" x2="225.0" y2="300.0" stroke="url(#grad_darkslateblue_steelblue)" stroke-width="2"/> <!-- edge to node 'level_3' -->
        <line x1="300.0" y1="180.0" x2="275.0" y2="300.0" stroke="url(#grad_darkslateblue_steelblue)" stroke-width="2"/> <!-- edge to node 'level_3' -->
        <line x1="300.0" y1="180.0" x2="325.0" y2="300.0" stroke="url(#grad_darkslateblue_steelblue)" stroke-width="2"/> <!-- edge to node 'level_3' -->
        <line x1="300.0" y1="180.0" x2="375.0" y2="300.0" stroke="url(#grad_darkslateblue_steelblue)" stroke-width="2"/> <!-- edge to node 'level_3' -->
        <circle cx="300.0" cy="180.0" r="16" fill="darkslateblue"/>

            <!-- Node 'level_3' -->
            <line x1="225.0" y1="300.0" x2="212.5" y2="420.0" stroke="url(#grad_steelblue_dodgerblue)" stroke-width="2"/> <!-- edge to node 'level_4' -->
            <line x1="225.0" y1="300.0" x2="237.5" y2="420.0" stroke="url(#grad_steelblue_dodgerblue)" stroke-width="2"/> <!-- edge to node 'level_4' -->
            <circle cx="225.0" cy="300.0" r="12" fill="steelblue"/>

                <!-- Node 'level_4' -->
                <line x1="212.5" y1="420.0" x2="206.25" y2="540.0" stroke="url(#grad_dodgerblue_lightblue)" stroke-width="2"/> <!-- edge to node 'level_5' -->
                <line x1="212.5" y1="420.0" x2="218.75" y2="540.0" stroke="url(#grad_dodgerblue_lightblue)" stroke-width="2"/> <!-- edge to node 'level_5' -->
                <circle cx="212.5" cy="420.0" r="8" fill="dodgerblue"/>

                    <!-- Node 'level_5' -->
                    <circle cx="206.25" cy="540.0" r="4" fill="lightblue"/>

                    <!-- Node 'level_5' -->
                    <circle cx="218.75" cy="540.0" r="4" fill="lightblue"/>

                <!-- Node 'level_4' -->
                <line x1="237.5" y1="420.0" x2="231.25" y2="540.0" stroke="url(#grad_dodgerblue_lightblue)" stroke-width="2"/> <!-- edge to node 'level_5' -->
                <line x1="237.5" y1="420.0" x2="243.75" y2="540.0" stroke="url(#grad_dodgerblue_lightblue)" stroke-width="2"/> <!-- edge to node 'level_5' -->
                <circle cx="237.5" cy="420.0" r="8" fill="dodgerblue"/>

                    <!-- Node 'level_5' -->
                    <circle cx="231.25" cy="540.0" r="4" fill="lightblue"/>

                    <!-- Node 'level_5' -->
                    <circle cx="243.75" cy="540.0" r="4" fill="lightblue"/>

            <!-- Node 'level_3' -->
            <line x1="275.0" y1="300.0" x2="262.5" y2="420.0" stroke="url(#grad_steelblue_dodgerblue)" stroke-width="2"/> <!-- edge to node 'level_4' -->
            <line x1="275.0" y1="300.0" x2="287.5" y2="420.0" stroke="url(#grad_steelblue_dodgerblue)" stroke-width="2"/> <!-- edge to node 'level_4' -->
            <circle cx="275.0" cy="300.0" r="12" fill="steelblue"/>

                <!-- Node 'level_4' -->
                <line x1="262.5" y1="420.0" x2="256.25" y2="540.0" stroke="url(#grad_dodgerblue_lightblue)" stroke-width="2"/> <!-- edge to node 'level_5' -->
                <line x1="262.5" y1="420.0" x2="268.75" y2="540.0" stroke="url(#grad_dodgerblue_lightblue)" stroke-width="2"/> <!-- edge to node 'level_5' -->
                <circle cx="262.5" cy="420.0" r="8" fill="dodgerblue"/>

                    <!-- Node 'level_5' -->
                    <circle cx="256.25" cy="540.0" r="4" fill="lightblue"/>

                    <!-- Node 'level_5' -->
                    <circle cx="268.75" cy="540.0" r="4" fill="lightblue"/>

                <!-- Node 'level_4' -->
                <line x1="287.5" y1="420.0" x2="281.25" y2="540.0" stroke="url(#grad_dodgerblue_lightblue)" stroke-width="2"/> <!-- edge to node 'level_5' -->
                <line x1="287.5" y1="420.0" x2="293.75" y2="540.0" stroke="url(#grad_dodgerblue_lightblue)" stroke-width="2"/> <!-- edge to node 'level_5' -->
                <circle cx="287.5" cy="420.0" r="8" fill="dodgerblue"/>

                    <!-- Node 'level_5' -->
                    <circle cx="281.25" cy="540.0" r="4" fill="lightblue"/>

                    <!-- Node 'level_5' -->
                    <circle cx="293.75" cy="540.0" r="4" fill="lightblue"/>

            <!-- Node 'level_3' -->
            <line x1="325.0" y1="300.0" x2="312.5" y2="420.0" stroke="url(#grad_steelblue_dodgerblue)" stroke-width="2"/> <!-- edge to node 'level_4' -->
            <line x1="325.0" y1="300.0" x2="337.5" y2="420.0" stroke="url(#grad_steelblue_dodgerblue)" stroke-width="2"/> <!-- edge to node 'level_4' -->
            <circle cx="325.0" cy="300.0" r="12" fill="steelblue"/>

                <!-- Node 'level_4' -->
                <line x1="312.5" y1="420.0" x2="306.25" y2="540.0" stroke="url(#grad_dodgerblue_lightblue)" stroke-width="2"/> <!-- edge to node 'level_5' -->
                <line x1="312.5" y1="420.0" x2="318.75" y2="540.0" stroke="url(#grad_dodgerblue_lightblue)" stroke-width="2"/> <!-- edge to node 'level_5' -->
                <circle cx="312.5" cy="420.0" r="8" fill="dodgerblue"/>

                    <!-- Node 'level_5' -->
                    <circle cx="306.25" cy="540.0" r="4" fill="lightblue"/>

                    <!-- Node 'level_5' -->
                    <circle cx="318.75" cy="540.0" r="4" fill="lightblue"/>

                <!-- Node 'level_4' -->
                <line x1="337.5" y1="420.0" x2="331.25" y2="540.0" stroke="url(#grad_dodgerblue_lightblue)" stroke-width="2"/> <!-- edge to node 'level_5' -->
                <line x1="337.5" y1="420.0" x2="343.75" y2="540.0" stroke="url(#grad_dodgerblue_lightblue)" stroke-width="2"/> <!-- edge to node 'level_5' -->
                <circle cx="337.5" cy="420.0" r="8" fill="dodgerblue"/>

                    <!-- Node 'level_5' -->
                    <circle cx="331.25" cy="540.0" r="4" fill="lightblue"/>

                    <!-- Node 'level_5' -->
                    <circle cx="343.75" cy="540.0" r="4" fill="lightblue"/>

            <!-- Node 'level_3' -->
            <line x1="375.0" y1="300.0" x2="362.5" y2="420.0" stroke="url(#grad_steelblue_dodgerblue)" stroke-width="2"/> <!-- edge to node 'level_4' -->
            <line x1="375.0" y1="300.0" x2="387.5" y2="420.0" stroke="url(#grad_steelblue_dodgerblue)" stroke-width="2"/> <!-- edge to node 'level_4' -->
            <circle cx="375.0" cy="300.0" r="12" fill="steelblue"/>

                <!-- Node 'level_4' -->
                <line x1="362.5" y1="420.0" x2="356.25" y2="540.0" stroke="url(#grad_dodgerblue_lightblue)" stroke-width="2"/> <!-- edge to node 'level_5' -->
                <line x1="362.5" y1="420.0" x2="368.75" y2="540.0" stroke="url(#grad_dodgerblue_lightblue)" stroke-width="2"/> <!-- edge to node 'level_5' -->
                <circle cx="362.5" cy="420.0" r="8" fill="dodgerblue"/>

                    <!-- Node 'level_5' -->
                    <circle cx="356.25" cy="540.0" r="4" fill="lightblue"/>

                    <!-- Node 'level_5' -->
                    <circle cx="368.75" cy="540.0" r="4" fill="lightblue"/>

                <!-- Node 'level_4' -->
                <line x1="387.5" y1="420.0" x2="381.25" y2="540.0" stroke="url(#grad_dodgerblue_lightblue)" stroke-width="2"/> <!-- edge to node 'level_5' -->
                <line x1="387.5" y1="420.0" x2="393.75" y2="540.0" stroke="url(#grad_dodgerblue_lightblue)" stroke-width="2"/> <!-- edge to node 'level_5' -->
                <circle cx="387.5" cy="420.0" r="8" fill="dodgerblue"/>

                    <!-- Node 'level_5' -->
                    <circle cx="381.25" cy="540.0" r="4" fill="lightblue"/>

                    <!-- Node 'level_5' -->
                    <circle cx="393.75" cy="540.0" r="4" fill="lightblue"/>

        <!-- Node 'level_2' -->
        <line x1="500.0" y1="180.0" x2="425.0" y2="300.0" stroke="url(#grad_darkslateblue_steelblue)" stroke-width="2"/> <!-- edge to node 'level_3' -->
        <line x1="500.0" y1="180.0" x2="475.0" y2="300.0" stroke="url(#grad_darkslateblue_steelblue)" stroke-width="2"/> <!-- edge to node 'level_3' -->
        <line x1="500.0" y1="180.0" x2="525.0" y2="300.0" stroke="url(#grad_darkslateblue_steelblue)" stroke-width="2"/> <!-- edge to node 'level_3' -->
        <line x1="500.0" y1="180.0" x2="575.0" y2="300.0" stroke="url(#grad_darkslateblue_steelblue)" stroke-width="2"/> <!-- edge to node 'level_3' -->
        <circle cx="500.0" cy="180.0" r="16" fill="darkslateblue"/>

            <!-- Node 'level_3' -->
            <line x1="425.0" y1="300.0" x2="412.5" y2="420.0" stroke="url(#grad_steelblue_dodgerblue)" stroke-width="2"/> <!-- edge to node 'level_4' -->
            <line x1="425.0" y1="300.0" x2="437.5" y2="420.0" stroke="url(#grad_steelblue_dodgerblue)" stroke-width="2"/> <!-- edge to node 'level_4' -->
            <circle cx="425.0" cy="300.0" r="12" fill="steelblue"/>

                <!-- Node 'level_4' -->
                <line x1="412.5" y1="420.0" x2="406.25" y2="540.0" stroke="url(#grad_dodgerblue_lightblue)" stroke-width="2"/> <!-- edge to node 'level_5' -->
                <line x1="412.5" y1="420.0" x2="418.75" y2="540.0" stroke="url(#grad_dodgerblue_lightblue)" stroke-width="2"/> <!-- edge to node 'level_5' -->
                <circle cx="412.5" cy="420.0" r="8" fill="dodgerblue"/>

                    <!-- Node 'level_5' -->
                    <circle cx="406.25" cy="540.0" r="4" fill="lightblue"/>

                    <!-- Node 'level_5' -->
                    <circle cx="418.75" cy="540.0" r="4" fill="lightblue"/>

                <!-- Node 'level_4' -->
                <line x1="437.5" y1="420.0" x2="431.25" y2="540.0" stroke="url(#grad_dodgerblue_lightblue)" stroke-width="2"/> <!-- edge to node 'level_5' -->
                <line x1="437.5" y1="420.0" x2="443.75" y2="540.0" stroke="url(#grad_dodgerblue_lightblue)" stroke-width="2"/> <!-- edge to node 'level_5' -->
                <circle cx="437.5" cy="420.0" r="8" fill="dodgerblue"/>

                    <!-- Node 'level_5' -->
                    <circle cx="431.25" cy="540.0" r="4" fill="lightblue"/>

                    <!-- Node 'level_5' -->
                    <circle cx="443.75" cy="540.0" r="4" fill="lightblue"/>

            <!-- Node 'level_3' -->
            <line x1="475.0" y1="300.0" x2="462.5" y2="420.0" stroke="url(#grad_steelblue_dodgerblue)" stroke-width="2"/> <!-- edge to node 'level_4' -->
            <line x1="475.0" y1="300.0" x2="487.5" y2="420.0" stroke="url(#grad_steelblue_dodgerblue)" stroke-width="2"/> <!-- edge to node 'level_4' -->
            <circle cx="475.0" cy="300.0" r="12" fill="steelblue"/>

                <!-- Node 'level_4' -->
                <line x1="462.5" y1="420.0" x2="456.25" y2="540.0" stroke="url(#grad_dodgerblue_lightblue)" stroke-width="2"/> <!-- edge to node 'level_5' -->
                <line x1="462.5" y1="420.0" x2="468.75" y2="540.0" stroke="url(#grad_dodgerblue_lightblue)" stroke-width="2"/> <!-- edge to node 'level_5' -->
                <circle cx="462.5" cy="420.0" r="8" fill="dodgerblue"/>

                    <!-- Node 'level_5' -->
                    <circle cx="456.25" cy="540.0" r="4" fill="lightblue"/>

                    <!-- Node 'level_5' -->
                    <circle cx="468.75" cy="540.0" r="4" fill="lightblue"/>

                <!-- Node 'level_4' -->
                <line x1="487.5" y1="420.0" x2="481.25" y2="540.0" stroke="url(#grad_dodgerblue_lightblue)" stroke-width="2"/> <!-- edge to node 'level_5' -->
                <line x1="487.5" y1="420.0" x2="493.75" y2="540.0" stroke="url(#grad_dodgerblue_lightblue)" stroke-width="2"/> <!-- edge to node 'level_5' -->
                <circle cx="487.5" cy="420.0" r="8" fill="dodgerblue"/>

                    <!-- Node 'level_5' -->
                    <circle cx="481.25" cy="540.0" r="4" fill="lightblue"/>

                    <!-- Node 'level_5' -->
                    <circle cx="493.75" cy="540.0" r="4" fill="lightblue"/>

            <!-- Node 'level_3' -->
            <line x1="525.0" y1="300.0" x2="512.5" y2="420.0" stroke="url(#grad_steelblue_dodgerblue)" stroke-width="2"/> <!-- edge to node 'level_4' -->
            <line x1="525.0" y1="300.0" x2="537.5" y2="420.0" stroke="url(#grad_steelblue_dodgerblue)" stroke-width="2"/> <!-- edge to node 'level_4' -->
            <circle cx="525.0" cy="300.0" r="12" fill="steelblue"/>

                <!-- Node 'level_4' -->
                <line x1="512.5" y1="420.0" x2="506.25" y2="540.0" stroke="url(#grad_dodgerblue_lightblue)" stroke-width="2"/> <!-- edge to node 'level_5' -->
                <line x1="512.5" y1="420.0" x2="518.75" y2="540.0" stroke="url(#grad_dodgerblue_lightblue)" stroke-width="2"/> <!-- edge to node 'level_5' -->
                <circle cx="512.5" cy="420.0" r="8" fill="dodgerblue"/>

                    <!-- Node 'level_5' -->
                    <circle cx="506.25" cy="540.0" r="4" fill="lightblue"/>

                    <!-- Node 'level_5' -->
                    <circle cx="518.75" cy="540.0" r="4" fill="lightblue"/>

                <!-- Node 'level_4' -->
                <line x1="537.5" y1="420.0" x2="531.25" y2="540.0" stroke="url(#grad_dodgerblue_lightblue)" stroke-width="2"/> <!-- edge to node 'level_5' -->
                <line x1="537.5" y1="420.0" x2="543.75" y2="540.0" stroke="url(#grad_dodgerblue_lightblue)" stroke-width="2"/> <!-- edge to node 'level_5' -->
                <circle cx="537.5" cy="420.0" r="8" fill="dodgerblue"/>

                    <!-- Node 'level_5' -->
                    <circle cx="531.25" cy="540.0" r="4" fill="lightblue"/>

                    <!-- Node 'level_5' -->
                    <circle cx="543.75" cy="540.0" r="4" fill="lightblue"/>

            <!-- Node 'level_3' -->
            <line x1="575.0" y1="300.0" x2="562.5" y2="420.0" stroke="url(#grad_steelblue_dodgerblue)" stroke-width="2"/> <!-- edge to node 'level_4' -->
            <line x1="575.0" y1="300.0" x2="587.5" y2="420.0" stroke="url(#grad_steelblue_dodgerblue)" stroke-width="2"/> <!-- edge to node 'level_4' -->
            <circle cx="575.0" cy="300.0" r="12" fill="steelblue"/>

                <!-- Node 'level_4' -->
                <line x1="562.5" y1="420.0" x2="556.25" y2="540.0" stroke="url(#grad_dodgerblue_lightblue)" stroke-width="2"/> <!-- edge to node 'level_5' -->
                <line x1="562.5" y1="420.0" x2="568.75" y2="540.0" stroke="url(#grad_dodgerblue_lightblue)" stroke-width="2"/> <!-- edge to node 'level_5' -->
                <circle cx="562.5" cy="420.0" r="8" fill="dodgerblue"/>

                    <!-- Node 'level_5' -->
                    <circle cx="556.25" cy="540.0" r="4" fill="lightblue"/>

                    <!-- Node 'level_5' -->
                    <circle cx="568.75" cy="540.0" r="4" fill="lightblue"/>

                <!-- Node 'level_4' -->
                <line x1="587.5" y1="420.0" x2="581.25" y2="540.0" stroke="url(#grad_dodgerblue_lightblue)" stroke-width="2"/> <!-- edge to node 'level_5' -->
                <line x1="587.5" y1="420.0" x2="593.75" y2="540.0" stroke="url(#grad_dodgerblue_lightblue)" stroke-width="2"/> <!-- edge to node 'level_5' -->
                <circle cx="587.5" cy="420.0" r="8" fill="dodgerblue"/>

                    <!-- Node 'level_5' -->
                    <circle cx="581.25" cy="540.0" r="4" fill="lightblue"/>

                    <!-- Node 'level_5' -->
                    <circle cx="593.75" cy="540.0" r="4" fill="lightblue"/>

        <!-- Node 'level_2' -->
        <line x1="700.0" y1="180.0" x2="625.0" y2="300.0" stroke="url(#grad_darkslateblue_steelblue)" stroke-width="2"/> <!-- edge to node 'level_3' -->
        <line x1="700.0" y1="180.0" x2="675.0" y2="300.0" stroke="url(#grad_darkslateblue_steelblue)" stroke-width="2"/> <!-- edge to node 'level_3' -->
        <line x1="700.0" y1="180.0" x2="725.0" y2="300.0" stroke="url(#grad_darkslateblue_steelblue)" stroke-width="2"/> <!-- edge to node 'level_3' -->
        <line x1="700.0" y1="180.0" x2="775.0" y2="300.0" stroke="url(#grad_darkslateblue_steelblue)" stroke-width="2"/> <!-- edge to node 'level_3' -->
        <circle cx="700.0" cy="180.0" r="16" fill="darkslateblue"/>

            <!-- Node 'level_3' -->
            <line x1="625.0" y1="300.0" x2="612.5" y2="420.0" stroke="url(#grad_steelblue_dodgerblue)" stroke-width="2"/> <!-- edge to node 'level_4' -->
            <line x1="625.0" y1="300.0" x2="637.5" y2="420.0" stroke="url(#grad_steelblue_dodgerblue)" stroke-width="2"/> <!-- edge to node 'level_4' -->
            <circle cx="625.0" cy="300.0" r="12" fill="steelblue"/>

                <!-- Node 'level_4' -->
                <line x1="612.5" y1="420.0" x2="606.25" y2="540.0" stroke="url(#grad_dodgerblue_lightblue)" stroke-width="2"/> <!-- edge to node 'level_5' -->
                <line x1="612.5" y1="420.0" x2="618.75" y2="540.0" stroke="url(#grad_dodgerblue_lightblue)" stroke-width="2"/> <!-- edge to node 'level_5' -->
                <circle cx="612.5" cy="420.0" r="8" fill="dodgerblue"/>

                    <!-- Node 'level_5' -->
                    <circle cx="606.25" cy="540.0" r="4" fill="lightblue"/>

                    <!-- Node 'level_5' -->
                    <circle cx="618.75" cy="540.0" r="4" fill="lightblue"/>

                <!-- Node 'level_4' -->
                <line x1="637.5" y1="420.0" x2="631.25" y2="540.0" stroke="url(#grad_dodgerblue_lightblue)" stroke-width="2"/> <!-- edge to node 'level_5' -->
                <line x1="637.5" y1="420.0" x2="643.75" y2="540.0" stroke="url(#grad_dodgerblue_lightblue)" stroke-width="2"/> <!-- edge to node 'level_5' -->
                <circle cx="637.5" cy="420.0" r="8" fill="dodgerblue"/>

                    <!-- Node 'level_5' -->
                    <circle cx="631.25" cy="540.0" r="4" fill="lightblue"/>

                    <!-- Node 'level_5' -->
                    <circle cx="643.75" cy="540.0" r="4" fill="lightblue"/>

            <!-- Node 'level_3' -->
            <line x1="675.0" y1="300.0" x2="662.5" y2="420.0" stroke="url(#grad_steelblue_dodgerblue)" stroke-width="2"/> <!-- edge to node 'level_4' -->
            <line x1="675.0" y1="300.0" x2="687.5" y2="420.0" stroke="url(#grad_steelblue_dodgerblue)" stroke-width="2"/> <!-- edge to node 'level_4' -->
            <circle cx="675.0" cy="300.0" r="12" fill="steelblue"/>

                <!-- Node 'level_4' -->
                <line x1="662.5" y1="420.0" x2="656.25" y2="540.0" stroke="url(#grad_dodgerblue_lightblue)" stroke-width="2"/> <!-- edge to node 'level_5' -->
                <line x1="662.5" y1="420.0" x2="668.75" y2="540.0" stroke="url(#grad_dodgerblue_lightblue)" stroke-width="2"/> <!-- edge to node 'level_5' -->
                <circle cx="662.5" cy="420.0" r="8" fill="dodgerblue"/>

                    <!-- Node 'level_5' -->
                    <circle cx="656.25" cy="540.0" r="4" fill="lightblue"/>

                    <!-- Node 'level_5' -->
                    <circle cx="668.75" cy="540.0" r="4" fill="lightblue"/>

                <!-- Node 'level_4' -->
                <line x1="687.5" y1="420.0" x2="681.25" y2="540.0" stroke="url(#grad_dodgerblue_lightblue)" stroke-width="2"/> <!-- edge to node 'level_5' -->
                <line x1="687.5" y1="420.0" x2="693.75" y2="540.0" stroke="url(#grad_dodgerblue_lightblue)" stroke-width="2"/> <!-- edge to node 'level_5' -->
                <circle cx="687.5" cy="420.0" r="8" fill="dodgerblue"/>

                    <!-- Node 'level_5' -->
                    <circle cx="681.25" cy="540.0" r="4" fill="lightblue"/>

                    <!-- Node 'level_5' -->
                    <circle cx="693.75" cy="540.0" r="4" fill="lightblue"/>

            <!-- Node 'level_3' -->
            <line x1="725.0" y1="300.0" x2="712.5" y2="420.0" stroke="url(#grad_steelblue_dodgerblue)" stroke-width="2"/> <!-- edge to node 'level_4' -->
            <line x1="725.0" y1="300.0" x2="737.5" y2="420.0" stroke="url(#grad_steelblue_dodgerblue)" stroke-width="2"/> <!-- edge to node 'level_4' -->
            <circle cx="725.0" cy="300.0" r="12" fill="steelblue"/>

                <!-- Node 'level_4' -->
                <line x1="712.5" y1="420.0" x2="706.25" y2="540.0" stroke="url(#grad_dodgerblue_lightblue)" stroke-width="2"/> <!-- edge to node 'level_5' -->
                <line x1="712.5" y1="420.0" x2="718.75" y2="540.0" stroke="url(#grad_dodgerblue_lightblue)" stroke-width="2"/> <!-- edge to node 'level_5' -->
                <circle cx="712.5" cy="420.0" r="8" fill="dodgerblue"/>

                    <!-- Node 'level_5' -->
                    <circle cx="706.25" cy="540.0" r="4" fill="lightblue"/>

                    <!-- Node 'level_5' -->
                    <circle cx="718.75" cy="540.0" r="4" fill="lightblue"/>

                <!-- Node 'level_4' -->
                <line x1="737.5" y1="420.0" x2="731.25" y2="540.0" stroke="url(#grad_dodgerblue_lightblue)" stroke-width="2"/> <!-- edge to node 'level_5' -->
                <line x1="737.5" y1="420.0" x2="743.75" y2="540.0" stroke="url(#grad_dodgerblue_lightblue)" stroke-width="2"/> <!-- edge to node 'level_5' -->
                <circle cx="737.5" cy="420.0" r="8" fill="dodgerblue"/>

                    <!-- Node 'level_5' -->
                    <circle cx="731.25" cy="540.0" r="4" fill="lightblue"/>

                    <!-- Node 'level_5' -->
                    <circle cx="743.75" cy="540.0" r="4" fill="lightblue"/>

            <!-- Node 'level_3' -->
            <line x1="775.0" y1="300.0" x2="762.5" y2="420.0" stroke="url(#grad_steelblue_dodgerblue)" stroke-width="2"/> <!-- edge to node 'level_4' -->
            <line x1="775.0" y1="300.0" x2="787.5" y2="420.0" stroke="url(#grad_steelblue_dodgerblue)" stroke-width="2"/> <!-- edge to node 'level_4' -->
            <circle cx="775.0" cy="300.0" r="12" fill="steelblue"/>

                <!-- Node 'level_4' -->
                <line x1="762.5" y1="420.0" x2="756.25" y2="540.0" stroke="url(#grad_dodgerblue_lightblue)" stroke-width="2"/> <!-- edge to node 'level_5' -->
                <line x1="762.5" y1="420.0" x2="768.75" y2="540.0" stroke="url(#grad_dodgerblue_lightblue)" stroke-width="2"/> <!-- edge to node 'level_5' -->
                <circle cx="762.5" cy="420.0" r="8" fill="dodgerblue"/>

                    <!-- Node 'level_5' -->
                    <circle cx="756.25" cy="540.0" r="4" fill="lightblue"/>

                    <!-- Node 'level_5' -->
                    <circle cx="768.75" cy="540.0" r="4" fill="lightblue"/>

                <!-- Node 'level_4' -->
                <line x1="787.5" y1="420.0" x2="781.25" y2="540.0" stroke="url(#grad_dodgerblue_lightblue)" stroke-width="2"/> <!-- edge to node 'level_5' -->
                <line x1="787.5" y1="420.0" x2="793.75" y2="540.0" stroke="url(#grad_dodgerblue_lightblue)" stroke-width="2"/> <!-- edge to node 'level_5' -->
                <circle cx="787.5" cy="420.0" r="8" fill="dodgerblue"/>

                    <!-- Node 'level_5' -->
                    <circle cx="781.25" cy="540.0" r="4" fill="lightblue"/>

                    <!-- Node 'level_5' -->
                    <circle cx="793.75" cy="540.0" r="4" fill="lightblue"/>

</svg>
