<?xml version="1.0" encoding="utf-8" standalone="no"?>

<svg width="600" height="600" version="1.1" xmlns="http://www.w3.org/2000/svg">

    <!-- image title -->
    <title>Tree graphic created with pytreesvg</title>

    <defs>
        <!-- linear gradient definitions -->
        <linearGradient id="grad_blue_red" x1="0%" x2="0%" y1="0%" y2="100%">
           <stop offset="0%" stop-color="blue"/>
           <stop offset="100%" stop-color="red"/>
        </linearGradient>
        <linearGradient id="grad_red_green" x1="0%" x2="0%" y1="0%" y2="100%">
           <stop offset="0%" stop-color="red"/>
           <stop offset="100%" stop-color="green"/>
        </linearGradient>
        <linearGradient id="grad_green_purple" x1="0%" x2="0%" y1="0%" y2="100%">
           <stop offset="0%" stop-color="green"/>
           <stop offset="100%" stop-color="purple"/>
        </linearGradient>
        <linearGradient id="grad_red_blue" x1="0%" x2="0%" y1="0%" y2="100%">
           <stop offset="0%" stop-color="red"/>
           <stop offset="100%" stop-color="blue"/>
        </linearGradient>
    </defs>

    <!-- Node '-' -->
    <line x1="300.0" y1="75.0" x2="150.0" y2="225.0" stroke="blue" stroke-width="2"/> <!-- edge to node 1 -->
    <line x1="300.0" y1="75.0" x2="450.0" y2="225.0" stroke="url(#grad_blue_red)" stroke-width="2"/> <!-- edge to node '*' -->
    <circle cx="300.0" cy="75.0" r="12" fill="blue"/>

        <!-- Node 1 -->
        <circle cx="150.0" cy="225.0" r="12" fill="blue"/>

        <!-- Node '*' -->
        <line x1="450.0" y1="225.0" x2="375.0" y2="375.0" stroke="url(#grad_red_green)" stroke-width="2"/> <!-- edge to node '+' -->
        <line x1="450.0" y1="225.0" x2="525.0" y2="375.0" stroke="url(#grad_red_blue)" stroke-width="2"/> <!-- edge to node 18 -->
        <circle cx="450.0" cy="225.0" r="20" fill="red"/>

            <!-- Node '+' -->
            <line x1="375.0" y1="375.0" x2="318.75" y2="525.0" stroke="url(#grad_green_purple)" stroke-width="2"/> <!-- edge to node 1 -->
            <line x1="375.0" y1="375.0" x2="356.25" y2="525.0" stroke="url(#grad_green_purple)" stroke-width="2"/> <!-- edge to node 2 -->
            <line x1="375.0" y1="375.0" x2="393.75" y2="525.0" stroke="url(#grad_green_purple)" stroke-width="2"/> <!-- edge to node 3 -->
            <line x1="375.0" y1="375.0" x2="431.25" y2="525.0" stroke="url(#grad_green_purple)" stroke-width="2"/> <!-- edge to node 4 -->
            <circle cx="375.0" cy="375.0" r="16" fill="green"/>

                <!-- Node 1 -->
                <circle cx="318.75" cy="525.0" r="8" fill="purple"/>

                <!-- Node 2 -->
                <circle cx="356.25" cy="525.0" r="8" fill="purple"/>

                <!-- Node 3 -->
                <circle cx="393.75" cy="525.0" r="8" fill="purple"/>

                <!-- Node 4 -->
                <circle cx="431.25" cy="525.0" r="8" fill="purple"/>

            <!-- Node 18 -->
            <circle cx="525.0" cy="375.0" r="12" fill="blue"/>

</svg>
